# Blender 5.0.1
# www.blender.org
mtllib Untitled.mtl
o Cube
v 0.378566 0.633124 -0.270177
v 0.378566 -0.633124 -0.270177
v 0.391817 0.697364 0.270177
v 0.391817 -0.697364 0.270177
v -0.378566 0.633124 -0.270177
v -0.378566 -0.633124 -0.270177
v -0.391817 0.697364 0.270177
v -0.391817 -0.697364 0.270177
v 0.660306 0.641892 0.431905
v -0.654385 0.646267 0.432709
v 0.595815 0.672847 -0.443778
v -0.615999 0.672988 -0.444646
v -0.397445 0.802182 0.270177
v -0.397445 0.802182 -0.270177
v -0.666941 0.783129 0.436328
v -0.628556 0.809851 -0.441027
v 0.397445 0.761770 -0.270177
v 0.397445 0.761770 0.270177
v 0.613437 0.768285 -0.441702
v 0.677928 0.737330 0.433981
v 0.397445 0.776908 -0.270177
v 0.397445 0.776908 0.270177
v 0.616185 0.783168 -0.441379
v 0.680676 0.752213 0.434305
v 0.388286 0.841659 -0.252840
v 0.427949 0.822622 0.285719
v 0.619846 0.802996 -0.440947
v 0.684337 0.772041 0.434736
v -0.414652 0.839129 0.279708
v -0.391044 0.855563 -0.259879
v -0.669552 0.811581 0.437081
v -0.631166 0.838303 -0.440274
v 0.660525 0.764089 0.435922
v -0.654166 0.768463 0.436726
v 0.596033 0.795043 -0.439761
v -0.615781 0.795184 -0.440629
vn -0.0000 -0.9748 -0.2231
vn -0.0000 -0.0000 1.0000
vn -0.9997 -0.0000 -0.0245
vn -0.0000 -0.9930 -0.1181
vn 0.9997 -0.0000 -0.0245
vn -0.0000 -0.0000 -1.0000
vn 0.0007 0.0329 -0.9995
vn -0.0000 -0.9540 -0.2999
vn -0.5222 -0.0280 -0.8524
vn 0.6319 -0.0927 0.7695
vn -0.5944 -0.0757 0.8006
vn -0.9938 -0.1110 -0.0112
vn 0.9949 0.0901 0.0463
vn 0.6219 -0.0000 0.7831
vn -0.9806 0.1794 0.0786
vn 0.9962 -0.0870 -0.0000
vn 0.4982 -0.0732 -0.8640
vn 0.4906 -0.0717 -0.8684
vn 1.0000 -0.0000 -0.0000
vn 0.4953 -0.0726 -0.8657
vn -0.1815 -0.9832 -0.0214
vn 0.6134 -0.1221 0.7802
vn 0.8416 -0.5341 -0.0809
vn 0.0913 -0.9955 -0.0263
vn -0.9929 0.1191 -0.0000
vn -0.5234 -0.0240 -0.8517
vn 0.0033 0.9994 0.0351
vn 0.9973 0.0006 -0.0734
vn -0.9990 0.0032 -0.0436
vn 0.0005 -0.0329 0.9995
vn -0.0000 -0.9749 -0.2228
vn -0.0033 -0.9476 -0.3195
vn -0.5233 -0.0255 -0.8518
vn 0.6189 -0.1311 0.7744
vn -0.5948 -0.0829 0.7996
vn -0.9986 -0.0536 -0.0000
vn -0.5981 -0.0668 0.7987
vn 0.6134 -0.1302 0.7790
vn 0.9894 -0.1452 -0.0070
vn 0.5087 -0.0444 -0.8598
vn 0.4985 -0.0382 -0.8660
vn 0.5043 -0.0000 -0.8635
vn 0.9901 0.1401 -0.0000
vn -0.9104 -0.4105 -0.0523
vn -0.5232 -0.0255 -0.8518
vn 0.0001 0.9995 0.0304
vt 0.625000 0.250000
vt 0.625000 0.500000
vt 0.625000 0.750000
vt 0.375000 1.000000
vt 0.375000 0.750000
vt 0.625000 0.000000
vt 0.375000 0.250000
vt 0.375000 0.000000
vt 0.375000 0.500000
vt 0.125000 0.750000
vt 0.125000 0.500000
vt 0.625000 1.000000
vt 0.875000 0.750000
vt 0.875000 0.500000
s 0
usemtl Material
f 5/1/1 11/2/1 1/2/1
f 3/3/2 8/4/2 4/5/2
f 7/6/3 6/7/3 8/8/3
f 2/9/4 8/10/4 6/11/4
f 1/2/5 4/5/5 2/9/5
f 5/1/6 2/9/6 6/7/6
f 11/2/7 36/1/7 35/2/7
f 3/3/8 10/12/8 7/12/8
f 10/12/9 13/12/9 7/12/9
f 11/2/10 17/2/10 1/2/10
f 14/1/11 32/1/11 16/1/11
f 7/6/12 14/1/12 5/1/12
f 12/1/11 14/1/11 16/1/11
f 10/13/13 16/14/13 15/13/13
f 19/2/14 21/2/14 17/2/14
f 9/3/15 19/2/15 11/2/15
f 3/3/16 17/2/16 18/3/16
f 9/3/17 18/3/17 20/3/17
f 24/3/18 26/3/18 28/3/18
f 17/2/19 22/3/19 18/3/19
f 20/3/20 22/3/20 24/3/20
f 20/3/15 23/2/15 19/2/15
f 25/2/21 28/3/21 26/3/21
f 24/3/15 27/2/15 23/2/15
f 21/2/22 27/2/22 25/2/22
f 22/3/23 25/2/23 26/3/23
f 30/1/24 31/6/24 32/1/24
f 13/6/25 30/1/25 14/1/25
f 15/12/26 29/12/26 13/12/26
f 15/13/13 32/14/13 31/13/13
f 35/2/27 34/13/27 33/3/27
f 9/3/28 35/2/28 33/3/28
f 10/13/29 36/14/29 12/14/29
f 9/3/30 34/12/30 10/12/30
f 5/1/31 12/1/31 11/2/31
f 3/3/2 7/12/2 8/4/2
f 7/6/3 5/1/3 6/7/3
f 2/9/4 4/5/4 8/10/4
f 1/2/5 3/3/5 4/5/5
f 5/1/6 1/2/6 2/9/6
f 11/2/7 12/1/7 36/1/7
f 3/3/32 9/3/32 10/12/32
f 10/12/33 15/12/33 13/12/33
f 11/2/34 19/2/34 17/2/34
f 14/1/35 30/1/35 32/1/35
f 7/6/36 13/6/36 14/1/36
f 12/1/37 5/1/37 14/1/37
f 10/13/13 12/14/13 16/14/13
f 19/2/38 23/2/38 21/2/38
f 9/3/15 20/3/15 19/2/15
f 3/3/39 1/2/39 17/2/39
f 9/3/40 3/3/40 18/3/40
f 24/3/41 22/3/41 26/3/41
f 17/2/19 21/2/19 22/3/19
f 20/3/42 18/3/42 22/3/42
f 20/3/15 24/3/15 23/2/15
f 25/2/21 27/2/21 28/3/21
f 24/3/15 28/3/15 27/2/15
f 21/2/38 23/2/38 27/2/38
f 22/3/43 21/2/43 25/2/43
f 30/1/24 29/6/24 31/6/24
f 13/6/44 29/6/44 30/1/44
f 15/12/45 31/12/45 29/12/45
f 15/13/13 16/14/13 32/14/13
f 35/2/46 36/14/46 34/13/46
f 9/3/28 11/2/28 35/2/28
f 10/13/29 34/13/29 36/14/29
f 9/3/30 33/3/30 34/12/30
